# xmcd CD database file
#
# Track frame offsets:
#	150
#	13900
#	26287
#	41740
#	56712
#	72835
#	92732
#	105277
#	117792
#	139372
#	152027
#	160345
#	181815
#	196087
#	209347
#	225330
#
# Disc length: 3134 seconds
#
# Revision: 0
# Processed by: cddbd v1.5.1PL0 Copyright (c) Steve Scherf et al.
# Submitted via: CDex 1.51
#
DISCID=cd0c3c10
DTITLE=Mister Jack and the Daniels - Forever Remains
DYEAR=1996
DGENRE=Country
TTITLE0=45% alcohol
TTITLE1=Downtown Lights
TTITLE2=Pretty Girl
TTITLE3=Sunday
TTITLE4=Take It Like a Man
TTITLE5=First Night in Town
TTITLE6=Fishin' Instead
TTITLE7=Baby You Are Mine
TTITLE8=Shalonda
TTITLE9=Honkey Tonk Heart
TTITLE10=Cry Cry Cry
TTITLE11=Bachelor 'Till I Die
TTITLE12=Forever Remains
TTITLE13=Rose
TTITLE14=He Came From The Desert
TTITLE15=Honkey Tonkin
EXTD=YEAR: 1996
EXTT0=
EXTT1=
EXTT2=
EXTT3=
EXTT4=
EXTT5=
EXTT6=
EXTT7=
EXTT8=
EXTT9=
EXTT10=
EXTT11=
EXTT12=
EXTT13=
EXTT14=
EXTT15=
PLAYORDER=
